<svg width="18" height="22" viewBox="0 0 18 22" fill="none" xmlns="http://www.w3.org/2000/svg">
<path d="M13 3.00049H15C15.5304 3.00049 16.0391 3.2112 16.4142 3.58627C16.7893 3.96135 17 4.47006 17 5.00049V19.0005C17 19.5309 16.7893 20.0396 16.4142 20.4147C16.0391 20.7898 15.5304 21.0005 15 21.0005H3C2.46957 21.0005 1.96086 20.7898 1.58579 20.4147C1.21071 20.0396 1 19.5309 1 19.0005V5.00049C1 4.47006 1.21071 3.96135 1.58579 3.58627C1.96086 3.2112 2.46957 3.00049 3 3.00049H5" fill="white"/>
<path d="M13 3.00049H15C15.5304 3.00049 16.0391 3.2112 16.4142 3.58627C16.7893 3.96135 17 4.47006 17 5.00049V19.0005C17 19.5309 16.7893 20.0396 16.4142 20.4147C16.0391 20.7898 15.5304 21.0005 15 21.0005H3C2.46957 21.0005 1.96086 20.7898 1.58579 20.4147C1.21071 20.0396 1 19.5309 1 19.0005V5.00049C1 4.47006 1.21071 3.96135 1.58579 3.58627C1.96086 3.2112 2.46957 3.00049 3 3.00049H5" stroke="#010564" stroke-width="2" stroke-linecap="round" stroke-linejoin="round"/>
<path d="M12.001 1H6.00098C5.44869 1 5.00098 1.44772 5.00098 2V4C5.00098 4.55228 5.44869 5 6.00098 5H12.001C12.5533 5 13.001 4.55228 13.001 4V2C13.001 1.44772 12.5533 1 12.001 1Z" fill="#010564" stroke="#010564" stroke-width="2" stroke-linecap="round" stroke-linejoin="round"/>
<path d="M13.001 18.0005H5.00098" stroke="#010564" stroke-width="1.5" stroke-linecap="round" stroke-linejoin="round"/>
<path d="M13.001 14.9995H5.00098" stroke="#010564" stroke-width="1.5" stroke-linecap="round" stroke-linejoin="round"/>
</svg>
